<?xml version="1.0" encoding="iso-8859-1"?>
<!-- Generator: Adobe Illustrator 19.0.0, SVG Export Plug-In . SVG Version: 6.00 Build 0)  -->
<svg version="1.1" id="Capa_1" xmlns="http://www.w3.org/2000/svg" xmlns:xlink="http://www.w3.org/1999/xlink" x="0px" y="0px"
	 viewBox="0 0 480.248 480.248" style="enable-background:new 0 0 480.248 480.248;" xml:space="preserve">
<path style="fill:#E6E6E6;" d="M200.124,264.496v48.256c0,12.976-10.52,23.496-23.496,23.496l0,0h-65
	c-12.976,0.004-23.5-10.511-23.504-23.488c0-0.003,0-0.005,0-0.008V267L200.124,264.496z"/>
<path style="fill:#F15A24;" d="M128.124,272.248h-28c-6.627,0-12,5.373-12,12c0,6.627-5.373,12-12,12s-12-5.373-12-12v-16.336
	c0-15.278,12.386-27.664,27.664-27.664l0,0h76.336l12.664,0.168l22.832,0.8l4.504,1.6c9.76,4.538,16.001,14.325,16,25.088v16.344
	c0,6.627-5.373,12-12,12s-12-5.373-12-12v4c0-16,0-16-24-16H128.124z"/>
<path style="fill:#333333;" d="M160.124,240.344v95.904h-32v-32v-16v-47.904H160.124z"/>
<g>
	<path style="fill:#A67C52;" d="M327.876,0l-87.752,104.248h29.504L368.372,0"/>
	<path style="fill:#A67C52;" d="M8.124,336.248h464v72h-464V336.248z"/>
</g>
<g>
	<path style="fill:#8C6239;" d="M48.124,408.248h64v64h-64V408.248z"/>
	<path style="fill:#8C6239;" d="M368.124,408.248h64v64h-64V408.248z"/>
</g>
<path style="fill:#E6E6E6;" d="M296.124,128.496v48.256c0,12.976-10.52,23.496-23.496,23.496l0,0h-65
	c-12.976,0.004-23.5-10.512-23.504-23.488c0-0.003,0-0.005,0-0.008V131L296.124,128.496z"/>
<path style="fill:#F15A24;" d="M224.124,136.248h-28c-6.627,0-12,5.373-12,12s-5.373,12-12,12s-12-5.373-12-12v-16.336
	c0-15.278,12.386-27.664,27.664-27.664l0,0h76.336l12.664,0.168l22.832,0.8l4.504,1.6c9.76,4.538,16.001,14.325,16,25.088v16.344
	c0,6.627-5.373,12-12,12c-6.627,0-12-5.373-12-12v4c0-16,0-16-24-16H224.124z"/>
<path style="fill:#333333;" d="M256.124,104.344v95.904h-32v-32v-16v-47.904H256.124z"/>
<path style="fill:#E6E6E6;" d="M392.124,264.496v48.256c0,12.976-10.52,23.496-23.496,23.496l0,0h-65
	c-12.976,0.004-23.5-10.511-23.504-23.488c0-0.003,0-0.005,0-0.008V267L392.124,264.496z"/>
<path style="fill:#F15A24;" d="M320.124,272.248h-28c-6.627,0-12,5.373-12,12c0,6.627-5.373,12-12,12c-6.627,0-12-5.373-12-12
	v-16.336c0-15.278,12.386-27.664,27.664-27.664l0,0h76.336l12.664,0.168l22.832,0.8l4.504,1.6c9.76,4.538,16.001,14.325,16,25.088
	v16.344c0,6.627-5.373,12-12,12c-6.627,0-12-5.373-12-12v4c0-16,0-16-24-16H320.124z"/>
<path style="fill:#333333;" d="M352.124,240.344v95.904h-32v-32v-16v-47.904H352.124z"/>
<path style="fill:#C69C6D;" d="M368.372,0L216.124,160.248l16,16l176-175.496L368.372,0z"/>
<path d="M472.124,328.248h-76.248c2.747-4.705,4.212-10.048,4.248-15.496v-8.912c10.823,2.209,21.387-4.773,23.596-15.596
	c0.268-1.315,0.404-2.654,0.404-3.996v-16.336c-0.022-19.688-15.976-35.642-35.664-35.664H283.788
	c-19.688,0.022-35.642,15.976-35.664,35.664v16.336c0.002,11.046,8.958,19.998,20.004,19.996c1.342,0,2.681-0.136,3.996-0.404v8.912
	c0.036,5.448,1.501,10.791,4.248,15.496h-72.496c2.747-4.705,4.212-10.048,4.248-15.496v-8.912
	c10.823,2.209,21.387-4.773,23.596-15.596c0.268-1.315,0.404-2.654,0.404-3.996v-16.336c-0.022-19.688-15.976-35.642-35.664-35.664
	H91.788c-19.688,0.022-35.642,15.976-35.664,35.664v16.336c0.002,11.046,8.958,19.998,20.004,19.996
	c1.342,0,2.681-0.136,3.996-0.404v8.912c0.036,5.448,1.501,10.791,4.248,15.496H8.124c-4.418,0-8,3.582-8,8v72c0,4.418,3.582,8,8,8
	h32v56c0,4.418,3.582,8,8,8h64c4.418,0,8-3.582,8-8v-56h240v56c0,4.418,3.582,8,8,8h64c4.418,0,8-3.582,8-8v-56h32
	c4.418,0,8-3.582,8-8v-72C480.124,331.83,476.542,328.248,472.124,328.248z M360.124,248.248h28.336
	c10.855,0.013,19.651,8.809,19.664,19.664v16.336c0,2.209-1.791,4-4,4c-2.209,0-4-1.791-4-4c0-11.046-8.954-20-20-20h-20V248.248z
	 M360.124,280.248h20c2.209,0,4,1.791,4,4c0.03,0.893,0.12,1.783,0.272,2.664c-0.131,0.436-0.222,0.883-0.272,1.336v24.504
	c-0.009,8.555-6.941,15.487-15.496,15.496h-8.504V280.248z M328.124,248.248h16v80h-16V248.248z M272.124,284.248
	c0,2.209-1.791,4-4,4c-2.209,0-4-1.791-4-4v-16.336c0.013-10.855,8.809-19.651,19.664-19.664h28.336v16h-20
	C281.078,264.248,272.124,273.202,272.124,284.248z M287.852,286.912c0.152-0.881,0.242-1.771,0.272-2.664c0-2.209,1.791-4,4-4h20
	v48h-8.496c-8.558-0.004-15.495-6.938-15.504-15.496v-24.504C288.074,287.795,287.983,287.348,287.852,286.912z M168.124,248.248
	h28.336c10.855,0.013,19.651,8.809,19.664,19.664v16.336c0,2.209-1.791,4-4,4s-4-1.791-4-4c0-11.046-8.954-20-20-20h-20V248.248z
	 M168.124,280.248h20c2.209,0,4,1.791,4,4c0.03,0.893,0.12,1.783,0.272,2.664c-0.131,0.436-0.222,0.883-0.272,1.336v24.504
	c-0.009,8.555-6.941,15.487-15.496,15.496h-8.504V280.248z M136.124,248.248h16v80h-16V248.248z M80.124,284.248
	c0,2.209-1.791,4-4,4s-4-1.791-4-4v-16.336c0.013-10.855,8.809-19.651,19.664-19.664h28.336v16h-20
	C89.078,264.248,80.124,273.202,80.124,284.248z M95.852,286.912c0.152-0.881,0.242-1.771,0.272-2.664c0-2.209,1.791-4,4-4h20v48
	h-8.496c-8.558-0.004-15.495-6.938-15.504-15.496v-24.504C96.074,287.795,95.983,287.348,95.852,286.912z M104.124,464.248h-48v-48
	h48V464.248z M424.124,464.248h-48v-48h48V464.248z M464.124,400.248h-448v-56h448V400.248z"/>
<path d="M325.244,2.104c-3.394-2.826-8.436-2.368-11.264,1.024l-77.6,93.12h-48.592c-19.688,0.022-35.642,15.976-35.664,35.664
	v16.336c0.002,11.046,8.958,19.998,20.004,19.996c1.342,0,2.681-0.136,3.996-0.404v8.912c0.026,17.387,14.117,31.474,31.504,31.496
	h65c17.384-0.026,31.47-14.112,31.496-31.496v-8.912c10.823,2.209,21.387-4.773,23.596-15.596c0.268-1.315,0.404-2.654,0.404-3.996
	v-16.336c-0.041-10.602-4.782-20.641-12.944-27.408l90.6-90.6c3.178-3.07,3.266-8.134,0.196-11.312s-8.134-3.266-11.312-0.196
	c-0.067,0.064-0.132,0.13-0.196,0.196L232.124,164.936l-4.8-4.8l1.336-1.416c0.88-0.608,1.624-1.393,2.184-2.304L365.932,13.752
	c3.09-3.158,3.035-8.223-0.123-11.313c-3.158-3.09-8.223-3.035-11.313,0.123c-0.061,0.062-0.121,0.126-0.18,0.19l-88.84,93.768
	c-0.442-0.131-0.894-0.222-1.352-0.272h-6.92l69.064-82.88C329.094,9.974,328.636,4.932,325.244,2.104L325.244,2.104z M303.684,116
	c5.228,3.621,8.375,9.553,8.44,15.912v16.336c0,2.209-1.791,4-4,4c-2.209,0-4-1.791-4-4h-0.08
	c-0.544-12.88-4.04-17.48-13.496-19.112L303.684,116z M264.124,155.56l11.304-11.312c4.174-0.111,8.352,0.054,12.504,0.496
	c0.192,1.664,0.192,4.728,0.192,7.496v24.504c-0.004,8.558-6.938,15.495-15.496,15.504h-8.504L264.124,155.56z M232.124,184.248
	c2.122,0,4.156-0.844,5.656-2.344l10.344-10.344v20.688h-16V184.248z M216.124,148.616l-5.808,6.136
	c-2.976,3.146-2.909,8.088,0.152,11.152l5.656,5.656v20.688h-8.496c-8.558-0.004-15.495-6.938-15.504-15.496v-24.504
	c-0.05-0.453-0.141-0.9-0.272-1.336c0.152-0.881,0.242-1.771,0.272-2.664c0-2.209,1.791-4,4-4h20V148.616z M216.124,128.248h-20
	c-11.046,0-20,8.954-20,20c0,2.209-1.791,4-4,4s-4-1.791-4-4v-16.336c0.013-10.855,8.809-19.651,19.664-19.664h28.336V128.248z
	 M232.124,131.728v-19.48h18.456L232.124,131.728z"/>
<g>
</g>
<g>
</g>
<g>
</g>
<g>
</g>
<g>
</g>
<g>
</g>
<g>
</g>
<g>
</g>
<g>
</g>
<g>
</g>
<g>
</g>
<g>
</g>
<g>
</g>
<g>
</g>
<g>
</g>
</svg>
