<?xml version="1.0" encoding="iso-8859-1"?>
<!-- Generator: Adobe Illustrator 19.0.0, SVG Export Plug-In . SVG Version: 6.00 Build 0)  -->
<svg version="1.1" id="Capa_1" xmlns="http://www.w3.org/2000/svg" xmlns:xlink="http://www.w3.org/1999/xlink" x="0px" y="0px"
	 viewBox="0 0 512.31 512.31" style="enable-background:new 0 0 512.31 512.31;" xml:space="preserve">
<path style="fill:#455A64;" d="M506.709,12.371c-3.3-1.905-7.366-1.905-10.667,0l-341.333,192c-5.09,2.966-6.812,9.496-3.846,14.586
	c1.897,3.255,5.37,5.268,9.137,5.296h64c1.659-0.006,3.294-0.392,4.779-1.131L506.112,84.457c3.609-1.808,5.888-5.499,5.888-9.536
	V21.587C512.001,17.793,509.987,14.284,506.709,12.371z"/>
<path style="fill:#607D8B;" d="M309.333,266.921H10.667C4.776,266.921,0,271.696,0,277.587v149.333
	c0,42.667,68.779,74.667,160,74.667s160-32,160-74.667V277.587C320,271.696,315.224,266.921,309.333,266.921z"/>
<path style="fill:#ECEFF1;" d="M160,202.921c-91.221,0-160,32-160,74.667s68.779,74.667,160,74.667s160-32,160-74.667
	S251.221,202.921,160,202.921z"/>
<path style="fill:#F44336;" d="M160,245.587c-16.021,0-96,1.536-96,32c0,30.464,79.979,32,96,32s96-1.536,96-32
	C256,247.123,176.021,245.587,160,245.587z"/>
<path style="fill:#455A64;" d="M506.368,182.867c-3.464-1.859-7.669-1.662-10.944,0.512l-352,234.667
	c-4.481,2.984-6.037,8.839-3.627,13.653l10.667,21.333c1.808,3.609,5.499,5.888,9.536,5.888c1.831,0.001,3.63-0.469,5.227-1.365
	l341.333-192c3.361-1.889,5.441-5.446,5.44-9.301v-64C511.994,188.327,509.83,184.721,506.368,182.867z"/>
<path d="M160,352.254c-91.221,0-160-32-160-74.667s68.779-74.667,160-74.667s160,32,160,74.667S251.221,352.254,160,352.254z
	 M160,224.254c-81.728,0-138.667,28.096-138.667,53.333c0,25.237,56.939,53.333,138.667,53.333s138.667-28.096,138.667-53.333
	C298.667,252.35,241.728,224.254,160,224.254z"/>
<path d="M160,309.587c-16.021,0-96-1.536-96-32c0-30.464,79.979-32,96-32s96,1.536,96,32C256,308.051,176.021,309.587,160,309.587z
	 M88.235,277.587c22.992,8.222,47.376,11.846,71.765,10.667c24.39,1.18,48.773-2.445,71.765-10.667
	c-22.992-8.222-47.376-11.846-71.765-10.667C135.61,265.741,111.227,269.365,88.235,277.587z"/>
<path d="M160,501.587c-91.221,0-160-32-160-74.667V277.587c0-5.891,4.776-10.667,10.667-10.667s10.667,4.776,10.667,10.667v149.333
	c0,25.237,56.939,53.333,138.667,53.333s138.667-28.096,138.667-53.333v-53.333c0-5.891,4.776-10.667,10.667-10.667
	S320,367.696,320,373.587v53.333C320,469.587,251.221,501.587,160,501.587z"/>
<path d="M160,458.921c-4.037,0-7.728-2.279-9.536-5.888l-10.667-21.333c-2.41-4.814-0.855-10.67,3.627-13.653l352-234.667
	c4.901-3.27,11.525-1.947,14.795,2.955c3.27,4.901,1.947,11.525-2.955,14.795l-344.171,229.44l1.451,2.901l331.563-186.496
	c5.234-2.704,11.669-0.654,14.373,4.579c2.57,4.973,0.858,11.086-3.92,14.002l-341.333,192
	C163.63,458.451,161.831,458.922,160,458.921z"/>
<path d="M160,224.254c-5.891,0.015-10.679-4.749-10.693-10.64c-0.01-3.866,2.074-7.435,5.445-9.328l341.333-192
	c5.029-3.069,11.593-1.48,14.662,3.549c3.069,5.029,1.48,11.593-3.549,14.662c-0.215,0.131-0.436,0.255-0.66,0.371l-341.333,192
	C163.62,223.773,161.826,224.25,160,224.254z"/>
<path d="M224,224.254c-5.891,0-10.666-4.776-10.666-10.667c0-4.036,2.279-7.727,5.887-9.535L496.555,65.385
	c5.272-2.633,11.681-0.494,14.315,4.779c2.633,5.272,0.494,11.681-4.779,14.315L228.757,223.145
	C227.28,223.882,225.651,224.262,224,224.254z"/>
<path d="M309.333,320.254c-5.891,0-10.667-4.776-10.667-10.667v-32c0-5.891,4.776-10.667,10.667-10.667S320,271.696,320,277.587v32
	C320,315.478,315.224,320.254,309.333,320.254z"/>
<g>
</g>
<g>
</g>
<g>
</g>
<g>
</g>
<g>
</g>
<g>
</g>
<g>
</g>
<g>
</g>
<g>
</g>
<g>
</g>
<g>
</g>
<g>
</g>
<g>
</g>
<g>
</g>
<g>
</g>
</svg>
